<svg xmlns="http://www.w3.org/2000/svg" width="1024" height="1024" viewBox="67.38999938964844 -40.998000144958496 889.2279663085938 1105.9929809570312" class="colorable-icon reset-top-left-margin" data-export-recolorable-svg="true" overflow="visible" xmlns:xlink="http://www.w3.org/1999/xlink" fill="rgb(0, 0, 0)" stroke="none"><g fill="none" stroke="rgb(0, 0, 0)" stroke-width="45" stroke-linecap="round" stroke-linejoin="round"><path d="M 745.166,286.026 C 730.623,285.719 716.019,284.188 706.252,282.13 C 696.183,278.884 685.761,274.129 675.91,267.83 C 666.904,259.96 658.744,250.668 649.668,235.508 C 645.719,225.368 643.169,215.538 641.25,196.289 L 640.892,157.532" data-line="nan" stroke-width="45.0" fill="none" stroke="rgb(0, 0, 0)"/><path d="M 911.618,918.694 C 910.265,943.039 906.704,957.974 902.857,968.049 C 897.269,978.296 889.878,988.382 876.241,1001.656 C 860.828,1011.057 850.52,1015.066 840.53,1017.524 Q 821.092,1019.749 777.487,1019.995" data-line="nan" stroke-width="45.0" fill="none" stroke="rgb(0, 0, 0)"/><path d="M 215.101,1019.944 C 190.922,1018.702 181.142,1017.029 171.364,1014.082 C 161.274,1009.459 150.928,1003.142 141.223,995.3 C 132.371,985.842 122.515,970.846 118.094,960.646 C 115.163,950.735 112.742,931.467 112.548,892.837" data-line="nan" stroke-width="45.0" fill="none" stroke="rgb(0, 0, 0)"/><path d="M 112.39,102.587 C 113.92,78.807 116.068,69.059 119.564,59.247 C 124.666,49.109 131.519,39.078 143.768,26.265 C 158.519,16.12 168.498,11.288 178.15,8.019 C 187.822,5.943 200.375,4.43 232.545,4.002" data-line="nan" stroke-width="45.0" fill="none" stroke="rgb(0, 0, 0)"/><path d="M 911.51,253.431 L 665.894,5.476" data-line="0.0" stroke-width="45.0" fill="none" stroke="rgb(0, 0, 0)"/><path d="M 911.513,286.077 L 745.166,286.026" data-line="1.0" stroke-width="45.0" fill="none" stroke="rgb(0, 0, 0)"/><path d="M 911.513,286.077 L 911.618,918.694" data-line="2.0" stroke-width="45.0" fill="none" stroke="rgb(0, 0, 0)"/><path d="M 640.892,157.532 L 640.82,4.864" data-line="4.0" stroke-width="45.0" fill="none" stroke="rgb(0, 0, 0)"/><path d="M 777.487,1019.995 L 215.101,1019.944" data-line="6.0" stroke-width="45.0" fill="none" stroke="rgb(0, 0, 0)"/><path d="M 112.548,892.837 L 112.39,102.587" data-line="8.0" stroke-width="45.0" fill="none" stroke="rgb(0, 0, 0)"/><path d="M 232.545,4.002 L 640.82,4.864" data-line="10.0" stroke-width="45.0" fill="none" stroke="rgb(0, 0, 0)"/></g></svg>