<svg xmlns="http://www.w3.org/2000/svg" width="1024" height="1024" viewBox="-40.38600015640259 71.20398712158203 1105.3629760742188 881.1730346679688" class="colorable-icon reset-top-left-margin" data-export-recolorable-svg="true" overflow="visible" xmlns:xlink="http://www.w3.org/1999/xlink" fill="rgb(0, 0, 0)" stroke="none"><g fill="none" stroke="rgb(0, 0, 0)" stroke-width="45" stroke-linecap="round" stroke-linejoin="round"><path d="M 4.614,790.576 C 6.235,819.076 9.403,833.361 12.753,842.854 C 19.994,857.299 26.662,866.98 35.191,876.622 C 44.57,884.869 54.132,891.309 63.846,896.433 C 73.548,900.433 87.963,904.555 107.079,907.075 L 154.997,907.321" data-line="nan" stroke-width="45.0" fill="none" stroke="rgb(0, 0, 0)"/><path d="M 903.312,907.377 C 917.682,907.097 932.087,905.319 946.687,901.515 C 956.19,897.833 970.699,889.798 980.68,882.16 C 990.29,872.895 998.34,863.159 1004.628,853.561 C 1009.622,843.816 1013.493,834.07 1017.344,819.601 Q 1019.81,795.373 1019.946,742.607" data-line="nan" stroke-width="45.0" fill="none" stroke="rgb(0, 0, 0)"/><path d="M 1019.977,238.906 C 1019.297,219.719 1017.216,205.271 1013.248,190.84 C 1009.321,181.165 1001.2,166.745 993.956,157.208 C 984.87,148.0 975.226,140.04 965.658,133.446 C 950.997,125.7 941.379,121.975 927.146,118.285 Q 912.876,116.757 860.14,116.612" data-line="nan" stroke-width="45.0" fill="none" stroke="rgb(0, 0, 0)"/><path d="M 10.464,185.167 L 4.614,790.576" data-line="0.0" stroke-width="45.0" fill="none" stroke="rgb(0, 0, 0)"/><path d="M 10.464,185.167 L 17.358,164.714" data-line="1.0" stroke-width="45.0" fill="none" stroke="rgb(0, 0, 0)"/><path d="M 443.697,409.822 L 229.727,275.01" data-line="3.0" stroke-width="45.0" fill="none" stroke="rgb(0, 0, 0)"/><path d="M 443.697,409.822 L 229.568,546.678" data-line="4.0" stroke-width="45.0" fill="none" stroke="rgb(0, 0, 0)"/><path d="M 229.727,275.01 L 229.568,546.678" data-line="5.0" stroke-width="45.0" fill="none" stroke="rgb(0, 0, 0)"/><path d="M 282.977,664.778 L 765.738,664.739" data-line="12.0" stroke-width="45.0" fill="none" stroke="rgb(0, 0, 0)"/><path d="M 281.101,775.809 L 687.666,775.615" data-line="13.0" stroke-width="45.0" fill="none" stroke="rgb(0, 0, 0)"/><path d="M 154.997,907.321 L 903.312,907.377" data-line="15.0" stroke-width="45.0" fill="none" stroke="rgb(0, 0, 0)"/><path d="M 1019.946,742.607 L 1019.977,238.906" data-line="17.0" stroke-width="45.0" fill="none" stroke="rgb(0, 0, 0)"/><path d="M 860.14,116.612 L 107.042,116.811" data-line="19.0" stroke-width="45.0" fill="none" stroke="rgb(0, 0, 0)"/><path d="M 106.98855440084579,116.20398960850412 A 125.53341069916227,125.53341069916227 0 0,0 18.079035586676923,165.2623638368898" data-line="20.0" stroke-width="45.0" fill="none" stroke="rgb(0, 0, 0)"/></g></svg>