<svg xmlns="http://www.w3.org/2000/svg" width="1024" height="1024" viewBox="-41 95.16093444824219 1106 834.23876953125" class="colorable-icon reset-top-left-margin" data-export-recolorable-svg="true" overflow="visible" xmlns:xlink="http://www.w3.org/1999/xlink" fill="rgb(0, 0, 0)" stroke="none"><g fill="none" stroke="rgb(0, 0, 0)" stroke-width="45" stroke-linecap="round" stroke-linejoin="round"><path d="M 141.25,534.36 C 158.3,533.896 169.732,531.681 175.531,529.567 C 187.058,523.037 197.219,513.792 204.839,502.564 C 209.283,490.536 210.855,478.938 211.09,450.702" data-line="nan" stroke-width="45.0" fill="none" stroke="rgb(0, 0, 0)"/><path d="M 436.204,140.505 C 455.791,141.468 467.033,143.889 478.569,150.005 C 487.5,158.093 495.17,169.717 499.03,180.835 Q 500.497,192.597 500.662,215.171" data-line="nan" stroke-width="45.0" fill="none" stroke="rgb(0, 0, 0)"/><path d="M 4.0,534.268 L 141.25,534.36" data-line="0.0" stroke-width="45.0" fill="none" stroke="rgb(0, 0, 0)"/><path d="M 211.09,450.702 L 211.205,208.08" data-line="2.0" stroke-width="45.0" fill="none" stroke="rgb(0, 0, 0)"/><path d="M 212.26571191577563,207.85199737917296 A 55.93599014348981,55.93599014348981 0 0,1 278.0321637651908,141.26921233182105" data-line="3.0" stroke-width="45.0" fill="none" stroke="rgb(0, 0, 0)"/><path d="M 278.187,140.503 L 436.204,140.505" data-line="4.0" stroke-width="45.0" fill="none" stroke="rgb(0, 0, 0)"/><path d="M 500.662,215.171 L 500.978,824.343" data-line="6.0" stroke-width="45.0" fill="none" stroke="rgb(0, 0, 0)"/><path d="M 500.77354090526154,824.3388107825821 A 58.85525315085005,58.85525315085005 0 0,0 576.7738482655592,881.8433425055501" data-line="7.0" stroke-width="45.0" fill="none" stroke="rgb(0, 0, 0)"/><path d="M 577.29,883.537 L 715.388,883.517" data-line="8.0" stroke-width="45.0" fill="none" stroke="rgb(0, 0, 0)"/><path d="M 715.3959875265729,883.4363401394759 A 58.8446663887996,58.8446663887996 0 0,0 777.3175901928421,807.1881858966946" data-line="9.0" stroke-width="45.0" fill="none" stroke="rgb(0, 0, 0)"/><path d="M 779.098,806.627 L 779.054,563.943" data-line="10.0" stroke-width="45.0" fill="none" stroke="rgb(0, 0, 0)"/><path d="M 780.1941795100396,563.696783094772 A 54.092662040346546,54.092662040346546 0 0,1 849.552126678874,500.75907293621077" data-line="11.0" stroke-width="45.0" fill="none" stroke="rgb(0, 0, 0)"/><path d="M 850.058,499.178 L 1020.0,499.251" data-line="12.0" stroke-width="45.0" fill="none" stroke="rgb(0, 0, 0)"/></g></svg>