<svg xmlns="http://www.w3.org/2000/svg" width="1024" height="1024" viewBox="-40.76200008392334 -40.98899984359741 1105.51904296875 1105.9739990234375" class="colorable-icon reset-top-left-margin" data-export-recolorable-svg="true" overflow="visible" xmlns:xlink="http://www.w3.org/1999/xlink" fill="rgb(0, 0, 0)" stroke="none"><g fill="none" stroke="rgb(0, 0, 0)" stroke-width="45" stroke-linecap="round" stroke-linejoin="round"><path d="M 192.546,1019.985 C 168.322,1019.225 137.99,1015.204 119.794,1011.633 C 101.743,1006.089 83.709,998.303 71.664,991.538 C 53.262,978.056 41.657,966.885 31.795,954.9 C 20.465,936.405 12.845,918.308 7.857,900.426 C 5.648,888.414 4.574,876.539 4.309,803.806" data-line="nan" stroke-width="45.0" fill="none" stroke="rgb(0, 0, 0)"/><path d="M 4.238,166.873 C 4.42,148.728 6.074,130.715 9.947,113.099 C 16.351,95.435 25.755,77.514 34.289,65.289 C 44.661,53.346 62.308,37.672 74.399,29.477 C 92.439,20.18 110.223,13.5 128.187,8.826 C 147.309,5.581 162.237,4.496 228.942,4.011" data-line="nan" stroke-width="45.0" fill="none" stroke="rgb(0, 0, 0)"/><path d="M 847.677,4.013 C 871.889,4.581 883.811,5.792 908.047,10.543 C 926.16,16.132 944.349,25.335 956.483,33.533 C 968.784,43.813 986.398,61.64 995.746,73.793 C 1006.017,91.928 1010.934,103.975 1016.249,122.448 C 1018.395,134.592 1019.479,146.673 1019.757,213.379" data-line="nan" stroke-width="45.0" fill="none" stroke="rgb(0, 0, 0)"/><path d="M 971.541,976.044 C 933.5818618516747,1011.8652337017244 879.5485943790652,1019.180627660436 835.545,1019.919" data-line="0.0" stroke-width="45.0" fill="none" stroke="rgb(0, 0, 0)"/><path d="M 835.545,1019.919 L 192.546,1019.985" data-line="1.0" stroke-width="45.0" fill="none" stroke="rgb(0, 0, 0)"/><path d="M 4.309,803.806 L 4.238,166.873" data-line="3.0" stroke-width="45.0" fill="none" stroke="rgb(0, 0, 0)"/><path d="M 228.942,4.011 L 847.677,4.013" data-line="5.0" stroke-width="45.0" fill="none" stroke="rgb(0, 0, 0)"/><path d="M 1019.757,213.379 L 1019.414,868.555" data-line="7.0" stroke-width="45.0" fill="none" stroke="rgb(0, 0, 0)"/><path d="M 1019.455906883839,868.5551999284181 A 146.1940047844947,146.1940047844947 0 0,1 971.5639258300307,976.0692373256022" data-line="8.0" stroke-width="45.0" fill="none" stroke="rgb(0, 0, 0)"/></g></svg>