<svg xmlns="http://www.w3.org/2000/svg" width="1024" height="1024" viewBox="41.5989990234375 -41 940.844970703125 1105.9990234375" class="colorable-icon reset-top-left-margin" data-export-recolorable-svg="true" overflow="visible" xmlns:xlink="http://www.w3.org/1999/xlink" fill="rgb(0, 0, 0)" stroke="none"><g fill="none" stroke="url(&quot;#theme-accent-gradient-linear&quot;) rgb(235, 111, 21)" stroke-width="45" stroke-linecap="round" stroke-linejoin="round"><path d="M 516.776,384.204 C 504.383,391.048 497.102,396.723 407.679,483.022 C 399.721,488.28 395.486,489.776 388.707,490.814" data-line="nan" stroke-width="45.0" fill="none" stroke="url(&quot;#theme-accent-gradient-linear&quot;) rgb(235, 111, 21)"/><path d="M 281.704,491.057 C 274.787,491.961 266.777,495.05 259.388,500.713 C 255.244,508.052 253.373,520.026 253.008,575.071" data-line="nan" stroke-width="45.0" fill="none" stroke="url(&quot;#theme-accent-gradient-linear&quot;) rgb(235, 111, 21)"/><path d="M 253.515,681.656 Q 254.982,696.888 260.027,711.905" data-line="nan" stroke-width="45.0" fill="none" stroke="url(&quot;#theme-accent-gradient-linear&quot;) rgb(235, 111, 21)"/><path d="M 539.659,793.188 C 537.288,804.032 532.75,811.539 524.537,817.83 L 513.424,823.279" data-line="nan" stroke-width="45.0" fill="none" stroke="url(&quot;#theme-accent-gradient-linear&quot;) rgb(235, 111, 21)"/><path d="M 513.424,823.279 C 500.295,815.773 492.088,809.12 403.013,719.664 Q 395.451,715.174 388.053,713.431" data-line="nan" stroke-width="45.0" fill="none" stroke="url(&quot;#theme-accent-gradient-linear&quot;) rgb(235, 111, 21)"/><path d="M 273.138,713.031 L 260.027,711.905" data-line="nan" stroke-width="45.0" fill="none" stroke="url(&quot;#theme-accent-gradient-linear&quot;) rgb(235, 111, 21)"/><path d="M 761.826,276.519 C 750.205,276.163 740.981,274.925 727.871,271.541 C 718.068,267.607 707.347,261.846 698.044,255.249 C 689.793,247.928 680.853,237.727 675.684,230.486 C 669.991,220.152 663.916,203.079 661.941,190.525 L 661.664,152.689" data-line="nan" stroke-width="45.0" fill="none" stroke="url(&quot;#theme-accent-gradient-linear&quot;) rgb(235, 111, 21)"/><path d="M 937.444,920.171 C 935.963,944.4 934.148,953.069 930.616,963.786 C 926.206,972.938 920.529,981.859 913.602,990.176 C 905.161,998.171 896.132,1004.795 885.849,1010.574 C 867.052,1017.42 849.59,1019.874 811.838,1019.999" data-line="nan" stroke-width="45.0" fill="none" stroke="url(&quot;#theme-accent-gradient-linear&quot;) rgb(235, 111, 21)"/><path d="M 182.849,1019.972 C 171.308,1019.674 159.963,1017.982 148.506,1014.804 C 140.029,1011.331 128.188,1004.724 119.577,998.408 C 111.04,990.408 105.411,983.678 99.963,975.7 C 95.48,967.381 90.675,955.435 88.473,946.906 Q 86.934,932.843 86.599,895.165" data-line="nan" stroke-width="45.0" fill="none" stroke="url(&quot;#theme-accent-gradient-linear&quot;) rgb(235, 111, 21)"/><path d="M 86.605,98.831 C 86.797,87.294 87.919,78.493 90.31,68.32 C 94.632,56.909 99.291,48.157 105.12,39.545 C 112.47,31.1 120.779,23.58 137.205,13.123 C 146.347,9.204 157.572,5.93 170.504,4.194 L 205.14,4.0" data-line="nan" stroke-width="45.0" fill="none" stroke="url(&quot;#theme-accent-gradient-linear&quot;) rgb(235, 111, 21)"/><path d="M 933.097,277.3 L 661.675,4.191" data-line="0.0" stroke-width="45.0" fill="none" stroke="url(&quot;#theme-accent-gradient-linear&quot;) rgb(235, 111, 21)"/><path d="M 933.097,277.3 L 761.826,276.519" data-line="1.0" stroke-width="45.0" fill="none" stroke="url(&quot;#theme-accent-gradient-linear&quot;) rgb(235, 111, 21)"/><path d="M 937.413,282.119 L 937.444,920.171" data-line="2.0" stroke-width="45.0" fill="none" stroke="url(&quot;#theme-accent-gradient-linear&quot;) rgb(235, 111, 21)"/><path d="M 539.829,398.57 L 516.776,384.204" data-line="7.0" stroke-width="45.0" fill="none" stroke="url(&quot;#theme-accent-gradient-linear&quot;) rgb(235, 111, 21)"/><path d="M 388.707,490.814 L 281.704,491.057" data-line="11.0" stroke-width="45.0" fill="none" stroke="url(&quot;#theme-accent-gradient-linear&quot;) rgb(235, 111, 21)"/><path d="M 253.008,575.071 L 253.515,681.656" data-line="13.0" stroke-width="45.0" fill="none" stroke="url(&quot;#theme-accent-gradient-linear&quot;) rgb(235, 111, 21)"/><path d="M 539.829,398.57 L 539.659,793.188" data-line="15.0" stroke-width="45.0" fill="none" stroke="url(&quot;#theme-accent-gradient-linear&quot;) rgb(235, 111, 21)"/><path d="M 713.5625881529011,754.3991378587848 A 232.3036622257491,232.3036622257491 0 0,0 716.1290800003705,455.94098217314877" data-line="18.0" stroke-width="45.0" fill="none" stroke="url(&quot;#theme-accent-gradient-linear&quot;) rgb(235, 111, 21)"/><path d="M 388.053,713.431 L 273.138,713.031" data-line="18.0" stroke-width="45.0" fill="none" stroke="url(&quot;#theme-accent-gradient-linear&quot;) rgb(235, 111, 21)"/><path d="M 643.0603679685046,523.3004475508352 A 118.78929667030496,118.78929667030496 0 0,1 647.3580180879336,680.5129822666868" data-line="19.0" stroke-width="45.0" fill="none" stroke="url(&quot;#theme-accent-gradient-linear&quot;) rgb(235, 111, 21)"/><path d="M 661.664,152.689 L 661.675,4.191" data-line="21.0" stroke-width="45.0" fill="none" stroke="url(&quot;#theme-accent-gradient-linear&quot;) rgb(235, 111, 21)"/><path d="M 811.838,1019.999 L 182.849,1019.972" data-line="23.0" stroke-width="45.0" fill="none" stroke="url(&quot;#theme-accent-gradient-linear&quot;) rgb(235, 111, 21)"/><path d="M 86.599,895.165 L 86.605,98.831" data-line="25.0" stroke-width="45.0" fill="none" stroke="url(&quot;#theme-accent-gradient-linear&quot;) rgb(235, 111, 21)"/><path d="M 205.14,4.0 L 661.675,4.191" data-line="27.0" stroke-width="45.0" fill="none" stroke="url(&quot;#theme-accent-gradient-linear&quot;) rgb(235, 111, 21)"/></g></svg>